<?xml version="1.0" standalone="no"?>
<!DOCTYPE svg PUBLIC "-//W3C//DTD SVG 20010904//EN"
 "http://www.w3.org/TR/2001/REC-SVG-20010904/DTD/svg10.dtd">
<svg version="1.0" xmlns="http://www.w3.org/2000/svg"
 width="700.000000pt" height="700.000000pt" viewBox="0 0 700.000000 700.000000"
 preserveAspectRatio="xMidYMid meet">
<metadata>
Created by potrace 1.14, written by Peter Selinger 2001-2017
</metadata>
<g transform="translate(0.000000,700.000000) scale(0.100000,-0.100000)"
fill="#000000" stroke="none">
<path d="M3625 6880 c-38 -4 -97 -11 -130 -14 -33 -4 -71 -9 -85 -11 -14 -2
-54 -9 -90 -14 -36 -6 -76 -13 -90 -16 -26 -5 -132 -28 -140 -30 -3 -1 -23 -5
-45 -9 -22 -4 -53 -12 -70 -17 -16 -5 -88 -26 -160 -48 -281 -84 -637 -238
-827 -358 -21 -12 -40 -23 -43 -23 -5 0 -195 -124 -289 -189 -258 -179 -584
-495 -824 -797 -130 -164 -297 -434 -407 -659 -191 -388 -300 -729 -369 -1160
-5 -31 -20 -154 -32 -265 -10 -90 -12 -512 -3 -596 3 -38 9 -103 13 -144 6
-71 29 -236 41 -290 3 -14 8 -41 11 -60 3 -19 10 -53 16 -75 5 -22 12 -47 13
-55 43 -200 146 -510 233 -703 37 -81 19 -81 205 7 73 35 164 78 204 96 l71
33 -35 81 c-73 169 -162 428 -188 549 -2 12 -13 65 -25 117 -66 303 -88 621
-67 945 31 459 152 904 360 1320 535 1067 1585 1782 2780 1892 167 16 607 9
727 -11 14 -3 47 -7 74 -11 27 -3 83 -12 125 -20 42 -8 88 -16 102 -19 53 -9
298 -77 394 -109 396 -135 780 -350 1102 -619 106 -89 323 -301 395 -387 l37
-43 25 18 c69 52 345 290 346 298 1 22 -246 281 -390 410 -122 109 -365 295
-475 363 -388 240 -738 396 -1113 497 -118 31 -243 60 -309 72 -15 3 -39 7
-53 10 -43 7 -155 23 -211 29 -30 4 -67 9 -84 12 -49 9 -644 11 -720 3z"/>
<path d="M3877 5785 c-1 -1 -54 -5 -117 -9 -63 -3 -124 -8 -136 -10 -12 -2
-45 -7 -75 -11 -76 -9 -240 -42 -329 -66 -763 -207 -1392 -702 -1769 -1394
-173 -318 -292 -699 -327 -1050 -4 -38 -8 -83 -10 -100 -5 -42 -4 -352 0 -401
14 -145 21 -200 41 -309 3 -16 8 -46 11 -65 9 -55 52 -218 78 -295 127 -380
291 -671 556 -990 42 -50 231 -237 298 -295 390 -336 917 -578 1412 -650 41
-6 89 -13 105 -16 17 -2 75 -7 130 -10 55 -3 119 -7 142 -8 23 -2 46 0 51 3 6
4 10 106 10 249 l0 242 -67 1 c-36 0 -82 2 -101 4 -19 2 -64 6 -99 9 -36 4
-74 9 -85 11 -12 3 -32 7 -46 9 -377 61 -761 234 -1068 479 -90 72 -267 246
-338 332 -298 361 -483 799 -531 1258 -9 93 -10 382 0 472 58 556 293 1047
686 1435 217 215 498 401 774 512 70 28 253 87 302 98 141 30 254 50 327 57
145 14 452 8 578 -11 516 -78 980 -314 1342 -682 48 -49 95 -99 104 -112 l15
-22 33 27 c18 16 100 84 182 152 82 68 153 128 158 132 16 14 -197 240 -325
344 -13 11 -47 38 -74 61 -310 253 -737 457 -1150 550 -26 6 -230 41 -275 48
-72 10 -405 27 -413 21z"/>
<path d="M3809 4606 c-2 -2 -33 -7 -68 -10 -36 -4 -67 -9 -70 -10 -3 -2 -22
-7 -41 -10 -93 -15 -194 -46 -310 -94 -879 -368 -1273 -1402 -860 -2257 183
-379 497 -673 886 -828 106 -43 293 -92 384 -102 36 -4 74 -9 85 -11 27 -6
238 -5 300 1 126 12 253 40 393 86 210 70 432 205 604 368 l48 45 -27 35 c-15
20 -32 41 -38 47 -5 6 -71 91 -145 187 l-135 176 -59 -60 c-338 -346 -856
-433 -1291 -217 -321 160 -546 471 -600 829 -92 613 335 1180 953 1265 151 21
323 5 476 -43 165 -51 310 -139 441 -264 l81 -78 40 32 c21 17 41 34 44 38 3
3 77 66 165 139 88 73 161 139 163 146 5 19 -159 181 -258 255 -106 80 -221
148 -337 198 -92 40 -230 87 -285 96 -17 3 -34 8 -38 10 -3 2 -29 7 -56 11
-27 3 -58 9 -69 11 -25 7 -370 15 -376 9z"/>
</g>
</svg>
