<svg xmlns="http://www.w3.org/2000/svg" xmlns:xlink="http://www.w3.org/1999/xlink" width="200" height="200" viewBox="0 0 200 200"><defs><mask id="a" x="0.33015" y="3" width="199.3397" height="160.58602" maskUnits="userSpaceOnUse"><path d="M.33015,3h199.3397V163.586H.33015Z" style="fill:#fff;fill-rule:evenodd"/></mask></defs><title>centrifuge-marquee-dark</title><g style="mask:url(#a)"><path d="M23.6715,157.62274A98.77691,98.77691,0,0,1,188.86061,52.38812L199.66985,43.319A112.89477,112.89477,0,0,0,10.88126,163.586Z" style="fill-rule:evenodd"/></g><path d="M112.77428,182.89149A67.01982,67.01982,0,1,1,164.11084,72.79627l10.81158-9.0715A81.12792,81.12792,0,1,0,112.77428,197Z" style="fill-rule:evenodd"/><path d="M137.52054,136.27805a31.7458,31.7458,0,1,1,0-40.80988l12.15819-10.20238a47.62233,47.62233,0,1,0-2.28141,63.73671Z" style="fill-rule:evenodd"/></svg>