<svg xmlns="http://www.w3.org/2000/svg" width="1112" height="374" viewBox="0 0 1112 374">
  <title>logo-light</title>
  <g>
    <path d="M127.50884,267.54678H21V82.611H127.50884v32.12975H60.21347v40.60491h62.61505v32.12974h-62.615v47.68864h67.29537Z" style="fill: #fff"/>
    <path d="M237.0024,267.54678,192.47614,122.457h-1.13845q2.40214,44.27454,2.4034,59.07319v86.01664H158.702V82.611h53.38092l43.76729,141.42147h.759L303.03282,82.611h53.38091V267.54678H319.85666V180.0122q0-6.197.18975-14.29394.18974-8.09442,1.70768-43.00832h-1.13846L272.927,267.54678Z" style="fill: #fff"/>
    <path d="M395.96391,82.611h57.55525q39.33744,0,57.11252,11.19481,17.77129,11.19482,17.77256,35.60836,0,16.57212-7.77945,27.19644a31.07008,31.07008,0,0,1-20.68194,12.776v1.26495q17.58155,3.92388,25.36226,14.67343,7.77943,10.75461,7.77944,28.58788,0,25.30028-18.27853,39.46646-18.27981,14.17-49.64931,14.16744h-69.1928Zm39.21347,73.24064h22.76911q15.93839,0,23.08535-4.93331,7.1457-4.93331,7.147-16.31786,0-10.62558-7.77945-15.24265-7.77943-4.61454-24.60328-4.61707h-20.6187Zm0,31.11778v48.19462h25.552q16.18884,0,23.90757-6.19826,7.71493-6.197,7.7162-18.97426,0-23.01957-32.88872-23.0221Z" style="fill: #fff"/>
    <path d="M609.23458,196.58306v70.96372H570.02111V82.611H623.908q37.69426,0,55.78432,13.72472,18.08627,13.726,18.08879,41.68012A49.07891,49.07891,0,0,1,688.8,167.04646q-8.98242,12.71275-25.42551,19.923,41.74336,62.3646,54.39287,80.57735H674.253l-44.14677-70.96372Zm0-31.87676h12.6495q18.59478,0,27.44943-6.19826,8.85339-6.197,8.85465-19.48023,0-13.153-9.04439-18.72127-9.04693-5.56326-28.01866-5.56578H609.23458Z" style="fill: #fff"/>
    <path d="M741.04242,267.54678V82.611h39.21347V267.54678Z" style="fill: #fff"/>
    <g>
      <line x1="976.14605" y1="174.96983" x2="1066.1742" y2="174.96983" style="fill: #232323"/>
      <rect x="976.14648" y="168.96973" width="90.02734" height="12" style="fill: #fff"/>
    </g>
    <rect x="894.43066" y="245.22266" width="18" height="90.02734" style="fill: #fff"/>
    <g>
      <line x1="761.46354" y1="41.39022" x2="851.1272" y2="124.49313" style="fill: #232323"/>
      <rect x="800.79583" y="21.81559" width="10.99917" height="122.25213" transform="translate(197.37026 617.91994) rotate(-47.17452)" style="fill: #fff"/>
    </g>
    <circle cx="1067.50319" cy="173.31078" r="28.49681" style="fill: #fff"/>
    <path d="M903.43,81.48a93.49,93.49,0,1,0,93.48993,93.49A93.494,93.494,0,0,0,903.43,81.48Zm0,145.43a51.94,51.94,0,1,1,51.94-51.94A51.94086,51.94086,0,0,1,903.43,226.91Z" style="fill: #fff"/>
    <circle cx="761.37858" cy="44.18606" r="28.49681" style="fill: #fff"/>
    <circle cx="903.38809" cy="335.42687" r="28.49681" style="fill: #fff"/>
  </g>
</svg>